<?xml version="1.0" encoding="UTF-8" standalone="no"?>
<!DOCTYPE svg PUBLIC "-//W3C//DTD SVG 1.1//EN" "http://www.w3.org/Graphics/SVG/1.1/DTD/svg11.dtd">
<svg width="100%" height="100%" viewBox="0 0 960 116" version="1.1" xmlns="http://www.w3.org/2000/svg" xmlns:xlink="http://www.w3.org/1999/xlink" xml:space="preserve" xmlns:serif="http://www.serif.com/" style="fill-rule:evenodd;clip-rule:evenodd;stroke-linecap:round;stroke-linejoin:round;stroke-miterlimit:1.5;">
    <g transform="matrix(0.32,0,0,0.32,0,0)">
        <g transform="matrix(1.34951,0,0,0.897834,-924.013,-764.53)">
            <rect x="847.764" y="927.548" width="1884.92" height="166.757" style="fill:white;stroke:black;stroke-width:3.27px;"/>
        </g>
        <g transform="matrix(0.473054,0,0,0.897834,-180.987,-764.53)">
            <rect x="847.764" y="927.548" width="1884.92" height="166.757" style="fill:white;stroke:black;stroke-width:4.94px;"/>
        </g>
        <g transform="matrix(0.473054,0,0,0.897834,710.595,-764.53)">
            <rect x="847.764" y="927.548" width="1884.92" height="166.757" style="fill:white;stroke:black;stroke-width:5.23px;"/>
        </g>
        <g transform="matrix(1,0,0,1,-40.7914,-1014.12)">
            <text x="673.865px" y="1187.86px" style="font-family:'CourierNewPSMT', 'Courier New', monospace;font-size:100px;">k</text>
        </g>
        <g transform="matrix(1,0,0,1,-451.526,-897.417)">
            <text x="673.865px" y="1187.86px" style="font-family:'CourierNewPSMT', 'Courier New', monospace;font-size:100px;">p</text>
        </g>
        <g transform="matrix(1,0,0,1,2090.76,-897.204)">
            <text x="673.865px" y="1187.86px" style="font-family:'CourierNewPSMT', 'Courier New', monospace;font-size:100px;">r</text>
        </g>
        <g transform="matrix(1,0,0,1,440.308,-879.749)">
            <text x="673.865px" y="1187.86px" style="font-family:'CourierNewPSMT', 'Courier New', monospace;font-size:100px;">p+k</text>
        </g>
        <g transform="matrix(1,0,0,1,1332.55,-877.476)">
            <text x="673.865px" y="1187.86px" style="font-family:'CourierNewPSMT', 'Courier New', monospace;font-size:100px;">q+j</text>
        </g>
        <g transform="matrix(1,0,0,1,685.299,-1021.68)">
            <text x="673.865px" y="1187.86px" style="font-family:'CourierNewPSMT', 'Courier New', monospace;font-size:100px;">q-(p+i)</text>
        </g>
        <g transform="matrix(1,0,0,1,1510.05,-1022.35)">
            <text x="673.865px" y="1187.86px" style="font-family:'CourierNewPSMT', 'Courier New', monospace;font-size:100px;">r-(q+j)</text>
        </g>
    </g>
</svg>
